<?xml version="1.0" encoding="utf-8"?>
<!-- Generator: Adobe Illustrator 25.0.0, SVG Export Plug-In . SVG Version: 6.00 Build 0)  -->
<svg version="1.1" id="Layer_1" xmlns="http://www.w3.org/2000/svg" xmlns:xlink="http://www.w3.org/1999/xlink" x="0px" y="0px"
	 viewBox="0 0 420 420" style="enable-background:new 0 0 420 420;" xml:space="preserve">
<style type="text/css">
	.st0{fill:#8DC63F;}
	.st1{fill:#F9E988;}
	.st2{fill:#FFFFFF;}
	.st3{fill:#8BC53F;}
	.st4{fill:#009345;}
	.st5{fill:#58595B;}
</style>
<g id="Coin_Gecko_AI">
	<path class="st0" d="M409.9978943,209.1000214c0.5,110.4988251-88.6990662,200.3979034-199.0979156,200.8978729
		c-110.4988403,0.5-200.3978882-88.6990662-200.8978882-199.0979156
		C9.5020971,100.4011383,98.7011642,10.5020866,209.1000214,10.0020914l0,0
		C319.5988464,9.5020971,409.4979248,98.7011642,409.9978943,209.1000214L409.9978943,209.1000214z"/>
	<path class="st1" d="M394.9980774,209.2000275c0.4999695,102.1989288-81.8991394,185.398056-184.0980988,185.898056
		C108.8010635,395.598053,25.6019268,313.1989441,25.1019325,210.9999847s81.8991394-185.398056,183.9980927-185.898056
		c0,0,0,0,0.1000061,0l0,0C311.2989197,24.7019348,394.4980774,107.1010818,394.9980774,209.2000275z"/>
	<path class="st2" d="M213.3999634,37.0018082c11.7998657-2.0999756,23.7997284-2.0999756,35.5996246,0
		c11.8998871,1.8999825,23.2997589,5.6999397,33.999649,11.3998833c10.599884,5.799942,19.6997986,13.6998634,28.699707,20.9997749
		s18.099823,14.8998337,26.6997375,23.1997528c8.7998962,8.0999222,16.3998108,17.3998108,22.7997437,27.4997101
		c6.499939,10.0999069,11.8998718,20.7997818,15.8998413,32.0996628
		c7.6999207,22.6997528,10.3998718,47.0995026,6.5999146,70.4992523h-1.0999756
		c-3.8999634-23.099762-9.0999146-45.0995331-17.3998108-66.0993042
		c-3.8999634-10.4998932-8.4999084-20.7997894-13.6998596-30.6996841
		c-5.4999695-9.9998932-11.4999084-19.699791-17.9998169-28.9996948
		c-6.5999451-9.3998947-14.7998352-17.599823-24.099762-24.2997513
		c-9.3999023-6.6999207-20.1997986-10.9998817-30.5997009-15.0998383
		c-10.3998718-4.0999565-20.7997437-8.2999153-31.6996613-11.4998779
		c-10.8998871-3.099968-21.9997711-5.4999428-33.499649-7.7999229L213.3999634,37.0018082z"/>
	<path class="st3" d="M303.7990112,143.9006805c-13.3998718-3.8999481-27.2997131-9.3998871-41.3995667-14.9998322
		c-0.7999878-3.4999695-3.8999634-7.8999176-10.299881-13.2998734c-9.1999207-7.9999161-26.4997253-7.7999191-41.3995514-4.1999512
		c-16.4998322-3.8999481-32.7996674-5.2999496-48.3994904-1.3999786
		C34.4018517,145.2006683,106.9011002,231.1997833,60.0015831,317.598877
		c6.6999245,14.1998596,78.699173,96.8989868,182.8980865,74.6992188c0,0-35.5996246-85.5991211,44.7995148-126.6987
		C352.8984985,231.9997711,399.9980164,170.1004181,303.7990112,143.9006805z"/>
	<path class="st2" d="M319.5988464,200.1001129c0,4.299942-3.3999329,7.7998962-7.6999207,7.7998962
		c-4.2999268,0-7.7998962-3.3999481-7.7998962-7.6999207c0-4.299942,3.3999634-7.7999115,7.6999207-7.7999115
		S319.5988464,195.9001465,319.5988464,200.1001129z"/>
	<path class="st4" d="M210.7000122,111.301033c9.299881,0.6999893,42.9995422,11.599884,51.6994629,17.5998306
		C255.1995392,107.901062,230.7997742,105.1011047,210.7000122,111.301033L210.7000122,111.301033z"/>
	<path class="st2" d="M219.5998993,164.500473c0,19.7998047-15.9998322,35.7996216-35.7996216,35.7996216
		s-35.7996368-15.9998322-35.7996368-35.7996368s15.9998474-35.7996216,35.7996368-35.7996216l0,0
		C203.500061,128.7008514,219.4998932,144.7006836,219.5998993,164.500473L219.5998993,164.500473z"/>
	<path class="st5" d="M209.0000153,164.8004761c0,13.8998413-11.2998962,25.1997375-25.1997375,25.1997375
		c-13.8998566,0-25.1997375-11.2998962-25.1997375-25.1997375s11.299881-25.1997375,25.1997375-25.1997375l0,0l0,0
		C197.700119,139.6007385,209.0000153,150.9006195,209.0000153,164.8004761z"/>
	<path class="st3" d="M348.5985413,215.8999329c-28.9996948,20.3997803-61.8993225,35.8996124-108.698822,35.8996124
		c-21.899765,0-26.2997131-23.1997681-40.7995911-11.8998566c-7.4999084,5.8999176-33.7996368,18.9997864-54.6994171,17.9998169
		c-20.8997726-1-54.6994247-13.1998901-64.1993256-57.7993927c-3.6999588,44.5995331-5.6999359,77.3991852-22.3997688,115.0988007
		c33.2996483,53.3994446,112.7988281,94.5990295,184.9980621,76.7991943
		c-7.6999359-54.0994568,39.699585-107.0989075,66.2993164-134.1986084
		C319.1988831,247.5996094,338.4986572,230.7997742,348.5985413,215.8999329L348.5985413,215.8999329z"/>
	<path class="st5" d="M347.4985657,217.1999359c-8.9999084,8.1999207-19.6997986,14.2998352-30.5997009,19.5998077
		c-10.9998779,5.1999512-22.4997559,9.3998871-34.2996216,12.4998627s-24.1997681,5.3999329-36.6996307,4.1999664
		s-25.2997131-5.3999329-33.499649-14.6998596l0.3999939-0.3999786c10.0998993,6.5999298,21.899765,8.8998871,33.499649,9.1999054
		c11.799881,0.3999939,23.5997467-0.5999908,35.1996307-2.8999634c11.6998901-2.4999695,23.1997986-5.999939,34.1996765-10.5998993
		c11.099884-4.5999451,21.9997559-9.8998871,31.3996582-17.3998108L347.4985657,217.1999359z"/>
</g>
<g>
</g>
<g>
</g>
<g>
</g>
<g>
</g>
<g>
</g>
<g>
</g>
<g>
</g>
<g>
</g>
<g>
</g>
<g>
</g>
<g>
</g>
<g>
</g>
<g>
</g>
<g>
</g>
<g>
</g>
</svg>
