<?xml version="1.0" encoding="utf-8"?>
<!-- Generator: Adobe Illustrator 27.9.2, SVG Export Plug-In . SVG Version: 6.00 Build 0)  -->
<svg version="1.1" id="Layer_1" xmlns="http://www.w3.org/2000/svg" xmlns:xlink="http://www.w3.org/1999/xlink" x="0px" y="0px"
	 viewBox="0 0 512 512" style="enable-background:new 0 0 512 512;" xml:space="preserve">
<style type="text/css">
	.st0{fill:url(#SVGID_1_);}
	.st1{fill:url(#SVGID_00000109029305340023125030000002169165194847961771_);}
	.st2{fill:url(#SVGID_00000075163847788489779510000006844996176640837023_);}
</style>
<g>
	
		<linearGradient id="SVGID_1_" gradientUnits="userSpaceOnUse" x1="413.6013" y1="-413.8729" x2="200.2573" y2="-5.2293" gradientTransform="matrix(1 0 0 1 0 484)">
		<stop  offset="0" style="stop-color:#00FFA3"/>
		<stop  offset="1" style="stop-color:#DC1FFF"/>
	</linearGradient>
	<path class="st0" d="M129.4,336.6c2.1-2.3,6.3-4.6,8.4-4.6h301.8c6.3,0,8.4,6.9,4.2,11.4l-59.1,64c-2.1,2.3-6.3,4.6-8.4,4.6H72.4
		c-6.3,0-8.4-6.9-4.2-11.4L129.4,336.6z"/>
	
		<linearGradient id="SVGID_00000088093063784019133070000006696630345875669680_" gradientUnits="userSpaceOnUse" x1="319.7022" y1="-466.0653" x2="107.9924" y2="-60.5559" gradientTransform="matrix(1 0 0 1 0 484)">
		<stop  offset="0" style="stop-color:#00FFA3"/>
		<stop  offset="1" style="stop-color:#DC1FFF"/>
	</linearGradient>
	<path style="fill:url(#SVGID_00000088093063784019133070000006696630345875669680_);" d="M129.4,104.4c2.1-2.2,4.2-4.4,8.4-4.4
		h301.8c6.3,0,8.4,6.7,4.2,11.1l-59.1,64.4c-2.1,2.2-6.3,4.4-8.4,4.4H72.4c-6.3,0-8.4-6.7-4.2-11.1L129.4,104.4z"/>
	
		<linearGradient id="SVGID_00000044893406036353249690000005727750135009134237_" gradientUnits="userSpaceOnUse" x1="367.2" y1="-440.8969" x2="151.6565" y2="-28.0446" gradientTransform="matrix(1 0 0 1 0 484)">
		<stop  offset="0" style="stop-color:#00FFA3"/>
		<stop  offset="1" style="stop-color:#DC1FFF"/>
	</linearGradient>
	<path style="fill:url(#SVGID_00000044893406036353249690000005727750135009134237_);" d="M386.5,220.6c-2.1-2.3-6.4-4.6-8.5-4.6
		H72.5c-6.4,0-8.5,6.9-4.2,11.4l59.4,64c2.1,2.3,6.4,4.6,8.5,4.6h303.4c6.4,0,8.5-6.9,4.2-11.4L386.5,220.6z"/>
</g>
</svg>
